<svg width="140" height="40" viewBox="0 0 140 40" fill="none" xmlns="http://www.w3.org/2000/svg">
<g clip-path="url(#clip0_2_6226)">
<g clip-path="url(#clip1_2_6226)">
<path d="M120.303 0.00013H19.7026C19.3359 0.00013 18.9736 0.00013 18.6079 0.00213C18.3018 0.00413 17.9981 0.00994 17.689 0.01483C17.0175 0.0227318 16.3476 0.0818063 15.6851 0.19154C15.0235 0.303663 14.3826 0.515046 13.7842 0.81854C13.1865 1.1246 12.6403 1.5223 12.1655 1.9972C11.6883 2.47077 11.2904 3.01815 10.9873 3.61829C10.6834 4.21724 10.4726 4.85907 10.3623 5.52161C10.251 6.18332 10.1911 6.85265 10.1831 7.52361C10.1738 7.83021 10.1729 8.13783 10.168 8.44447V31.5587C10.1729 31.8692 10.1738 32.17 10.1831 32.4806C10.1911 33.1516 10.251 33.8209 10.3623 34.4825C10.4723 35.1455 10.6831 35.7877 10.9873 36.3868C11.2903 36.985 11.6882 37.5302 12.1655 38.0011C12.6385 38.4781 13.185 38.8761 13.7842 39.1798C14.3826 39.4841 15.0234 39.6968 15.6851 39.8106C16.3477 39.9195 17.0175 39.9786 17.689 39.9874C17.9981 39.9942 18.3018 39.9981 18.6079 39.9981C18.9736 40.0001 19.336 40.0001 19.7026 40.0001H120.303C120.662 40.0001 121.027 40.0001 121.387 39.9981C121.691 39.9981 122.004 39.9942 122.309 39.9874C122.979 39.9791 123.647 39.92 124.309 39.8106C124.972 39.696 125.616 39.4834 126.217 39.1798C126.815 38.8759 127.361 38.478 127.834 38.0011C128.31 37.5284 128.709 36.9836 129.016 36.3868C129.318 35.7872 129.526 35.1451 129.635 34.4825C129.746 33.8208 129.808 33.1516 129.82 32.4806C129.824 32.17 129.824 31.8692 129.824 31.5587C129.832 31.1954 129.832 30.8341 129.832 30.4649V9.53626C129.832 9.17005 129.832 8.80677 129.824 8.44447C129.824 8.13783 129.824 7.83021 129.82 7.52357C129.808 6.85255 129.746 6.18337 129.635 5.52157C129.526 4.85941 129.317 4.21763 129.016 3.61825C128.398 2.41533 127.42 1.43616 126.217 0.81845C125.615 0.515697 124.972 0.30437 124.309 0.19145C123.648 0.0812328 122.979 0.0221378 122.309 0.01469C122.004 0.00981 121.691 0.00395 121.387 0.002C121.027 0 120.662 0.00013 120.303 0.00013Z" fill="#A6A6A6"/>
<path d="M18.6128 39.125C18.3082 39.125 18.0108 39.1211 17.7085 39.1143C17.0823 39.1061 16.4576 39.0516 15.8394 38.9512C15.263 38.8519 14.7046 38.6673 14.1827 38.4033C13.6655 38.1415 13.1938 37.7983 12.7857 37.3867C12.3716 36.98 12.0269 36.5082 11.7652 35.9902C11.5005 35.4688 11.3174 34.9099 11.2222 34.333C11.1193 33.7131 11.0636 33.0863 11.0557 32.458C11.0493 32.2471 11.041 31.5449 11.041 31.5449V8.44434C11.041 8.44434 11.0499 7.75293 11.0557 7.5498C11.0633 6.92248 11.1187 6.29665 11.2212 5.67773C11.3167 5.09925 11.4999 4.53875 11.7647 4.01563C12.0255 3.49794 12.3683 3.02586 12.7798 2.61768C13.1909 2.20562 13.6641 1.8606 14.1822 1.59521C14.7029 1.33209 15.2603 1.14873 15.8355 1.05127C16.4557 0.949836 17.0826 0.894996 17.711 0.88721L18.6133 0.875H121.382L122.295 0.8877C122.918 0.895099 123.539 0.94945 124.153 1.05029C124.734 1.14898 125.298 1.33362 125.824 1.59814C126.862 2.13299 127.707 2.97916 128.239 4.01807C128.5 4.53758 128.68 5.09351 128.774 5.66699C128.878 6.29099 128.936 6.92174 128.948 7.5542C128.951 7.8374 128.951 8.1416 128.951 8.44434C128.959 8.81934 128.959 9.17627 128.959 9.53613V30.4648C128.959 30.8281 128.959 31.1826 128.951 31.54C128.951 31.8652 128.951 32.1631 128.947 32.4697C128.936 33.0909 128.878 33.7104 128.776 34.3232C128.683 34.9043 128.501 35.4675 128.236 35.9932C127.973 36.5056 127.63 36.9733 127.221 37.3789C126.812 37.7927 126.34 38.1379 125.821 38.4014C125.296 38.6674 124.734 38.8527 124.153 38.9512C123.535 39.0522 122.91 39.1067 122.284 39.1143C121.991 39.1211 121.685 39.125 121.387 39.125L120.303 39.127L18.6128 39.125Z" fill="black"/>
<path d="M34.936 20.3013C34.9467 19.4666 35.1684 18.6483 35.5805 17.9223C35.9925 17.1964 36.5815 16.5864 37.2925 16.1492C36.8408 15.5041 36.2449 14.9731 35.552 14.5986C34.8592 14.224 34.0886 14.0162 33.3014 13.9916C31.6221 13.8153 29.9942 14.9964 29.1385 14.9964C28.2662 14.9964 26.9487 14.0091 25.53 14.0383C24.6123 14.0679 23.718 14.3348 22.9341 14.8128C22.1502 15.2909 21.5035 15.9638 21.0571 16.7661C19.1231 20.1145 20.5657 25.0356 22.4183 27.7422C23.3452 29.0676 24.4284 30.548 25.8459 30.4955C27.233 30.438 27.751 29.611 29.4253 29.611C31.0841 29.611 31.5701 30.4955 33.0163 30.4621C34.5047 30.438 35.4424 29.1309 36.3368 27.793C37.0028 26.8486 37.5152 25.8049 37.8552 24.7005C36.9905 24.3347 36.2526 23.7226 35.7335 22.9403C35.2144 22.158 34.937 21.2402 34.936 20.3013Z" fill="white"/>
<path d="M32.2036 12.2113C33.0151 11.2371 33.4149 9.98494 33.3181 8.7207C32.0783 8.85092 30.933 9.44348 30.1105 10.3803C29.7084 10.838 29.4004 11.3704 29.2041 11.9472C29.0079 12.524 28.9273 13.1337 28.9668 13.7417C29.587 13.7481 30.2005 13.6137 30.7611 13.3486C31.3218 13.0835 31.815 12.6946 32.2036 12.2113Z" fill="white"/>
<path d="M52.4688 27.1397H47.7354L46.5986 30.4961H44.5938L49.0772 18.0781H51.1602L55.6436 30.4961H53.6045L52.4688 27.1397ZM48.2256 25.5908H51.9776L50.128 20.1436H50.0762L48.2256 25.5908Z" fill="white"/>
<path d="M65.3252 25.9695C65.3252 28.7829 63.8194 30.5905 61.5469 30.5905C60.9713 30.6207 60.3988 30.4881 59.895 30.2079C59.3912 29.9278 58.9764 29.5114 58.6983 29.0065H58.6553V33.4909H56.7969V21.4421H58.5957V22.948H58.6299C58.9209 22.4455 59.3426 22.0313 59.8502 21.7495C60.3579 21.4676 60.9324 21.3287 61.5127 21.3474C63.8105 21.3474 65.3252 23.1638 65.3252 25.9695ZM63.4151 25.9695C63.4151 24.1365 62.4678 22.9314 61.0225 22.9314C59.6026 22.9314 58.6475 24.1618 58.6475 25.9695C58.6475 27.7937 59.6026 29.0154 61.0225 29.0154C62.4678 29.0154 63.4151 27.8191 63.4151 25.9695Z" fill="white"/>
<path d="M75.2901 25.9694C75.2901 28.7829 73.7842 30.5905 71.5117 30.5905C70.9361 30.6206 70.3636 30.488 69.8598 30.2079C69.356 29.9278 68.9413 29.5114 68.6631 29.0065H68.6201V33.4909H66.7617V21.4421H68.5605V22.948H68.5947C68.8857 22.4455 69.3074 22.0313 69.815 21.7495C70.3227 21.4676 70.8972 21.3287 71.4775 21.3474C73.7754 21.3474 75.2901 23.1638 75.2901 25.9694ZM73.3799 25.9694C73.3799 24.1364 72.4326 22.9314 70.9873 22.9314C69.5674 22.9314 68.6123 24.1618 68.6123 25.9694C68.6123 27.7937 69.5674 29.0153 70.9873 29.0153C72.4326 29.0153 73.3799 27.8191 73.3799 25.9694Z" fill="white"/>
<path d="M81.877 27.0362C82.0147 28.2676 83.211 29.0762 84.8457 29.0762C86.4121 29.0762 87.5391 28.2676 87.5391 27.1572C87.5391 26.1934 86.8594 25.6162 85.25 25.2207L83.6407 24.833C81.3604 24.2822 80.3018 23.2158 80.3018 21.4854C80.3018 19.3428 82.169 17.8711 84.8203 17.8711C87.4443 17.8711 89.2432 19.3428 89.3037 21.4854H87.4277C87.3154 20.2461 86.291 19.4981 84.794 19.4981C83.2969 19.4981 82.2725 20.2549 82.2725 21.3565C82.2725 22.2344 82.9268 22.751 84.5274 23.1465L85.8955 23.4824C88.4434 24.0849 89.502 25.1084 89.502 26.9248C89.502 29.248 87.6514 30.7031 84.708 30.7031C81.9541 30.7031 80.0947 29.2822 79.9746 27.0361L81.877 27.0362Z" fill="white"/>
<path d="M93.5117 19.2998V21.4424H95.2334V22.9141H93.5117V27.9053C93.5117 28.6807 93.8564 29.042 94.6133 29.042C94.8177 29.0384 95.0217 29.0241 95.2246 28.999V30.4619C94.8843 30.5255 94.5385 30.5543 94.1924 30.5478C92.3594 30.5478 91.6445 29.8593 91.6445 28.1035V22.9141H90.3281V21.4424H91.6445V19.2998H93.5117Z" fill="white"/>
<path d="M96.2324 25.9697C96.2324 23.1211 97.9101 21.3311 100.526 21.3311C103.151 21.3311 104.821 23.1211 104.821 25.9697C104.821 28.8262 103.16 30.6084 100.526 30.6084C97.8935 30.6084 96.2324 28.8262 96.2324 25.9697ZM102.928 25.9697C102.928 24.0156 102.032 22.8623 100.526 22.8623C99.0205 22.8623 98.126 24.0244 98.126 25.9697C98.126 27.9316 99.0205 29.0762 100.526 29.0762C102.032 29.0762 102.928 27.9316 102.928 25.9697Z" fill="white"/>
<path d="M106.352 21.442H108.124V22.983H108.167C108.287 22.5017 108.569 22.0764 108.965 21.7785C109.362 21.4806 109.849 21.3284 110.345 21.3473C110.559 21.3465 110.773 21.3698 110.981 21.4166V23.1549C110.711 23.0723 110.429 23.0343 110.146 23.0426C109.877 23.0316 109.607 23.0792 109.358 23.1821C109.108 23.285 108.883 23.4408 108.699 23.6386C108.515 23.8365 108.376 24.0719 108.292 24.3286C108.207 24.5852 108.179 24.8571 108.21 25.1256V30.4957H106.352L106.352 21.442Z" fill="white"/>
<path d="M119.55 27.8369C119.3 29.4805 117.699 30.6084 115.651 30.6084C113.018 30.6084 111.383 28.8437 111.383 26.0127C111.383 23.1729 113.026 21.3311 115.573 21.3311C118.078 21.3311 119.653 23.0518 119.653 25.7969V26.4336H113.259V26.5459C113.229 26.8791 113.271 27.2148 113.381 27.5306C113.491 27.8464 113.667 28.1352 113.898 28.3778C114.128 28.6203 114.408 28.8111 114.717 28.9374C115.027 29.0637 115.36 29.1226 115.694 29.1103C116.134 29.1515 116.574 29.0498 116.951 28.8203C117.328 28.5909 117.62 28.246 117.785 27.8369L119.55 27.8369ZM113.268 25.1348H117.794C117.811 24.8352 117.765 24.5354 117.661 24.2541C117.556 23.9729 117.394 23.7164 117.186 23.5006C116.977 23.2849 116.726 23.1145 116.449 23.0003C116.171 22.8861 115.873 22.8305 115.573 22.8369C115.271 22.8351 114.971 22.8933 114.691 23.008C114.411 23.1227 114.156 23.2918 113.942 23.5054C113.727 23.7191 113.557 23.973 113.442 24.2527C113.326 24.5323 113.267 24.8321 113.268 25.1348Z" fill="white"/>
<path d="M47.9951 8.7304C48.3847 8.70244 48.7757 8.7613 49.1398 8.90274C49.5039 9.04417 49.8321 9.26465 50.1007 9.54828C50.3693 9.8319 50.5716 10.1716 50.693 10.5429C50.8144 10.9141 50.8519 11.3077 50.8027 11.6952C50.8027 13.6015 49.7725 14.6972 47.9951 14.6972H45.8398V8.7304H47.9951ZM46.7666 13.8534H47.8916C48.17 13.87 48.4486 13.8244 48.7071 13.7198C48.9657 13.6152 49.1976 13.4542 49.3861 13.2487C49.5746 13.0431 49.7149 12.7981 49.7968 12.5315C49.8786 12.2648 49.9 11.9833 49.8594 11.7074C49.8971 11.4326 49.8735 11.1528 49.7904 10.8881C49.7073 10.6235 49.5667 10.3805 49.3786 10.1765C49.1905 9.97261 48.9597 9.8128 48.7026 9.70856C48.4455 9.60433 48.1686 9.55824 47.8916 9.57361H46.7666V13.8534Z" fill="white"/>
<path d="M51.8499 12.4438C51.8216 12.1479 51.8554 11.8493 51.9493 11.5672C52.0431 11.2852 52.1949 11.0258 52.3948 10.8059C52.5948 10.5859 52.8385 10.4101 53.1103 10.2898C53.3822 10.1696 53.6762 10.1074 53.9734 10.1074C54.2707 10.1074 54.5647 10.1696 54.8365 10.2898C55.1084 10.4101 55.3521 10.5859 55.552 10.8059C55.752 11.0258 55.9037 11.2852 55.9976 11.5672C56.0914 11.8493 56.1253 12.1479 56.097 12.4438C56.1258 12.74 56.0924 13.039 55.9988 13.3215C55.9052 13.6041 55.7535 13.8639 55.5535 14.0843C55.3535 14.3047 55.1096 14.4808 54.8375 14.6014C54.5654 14.7219 54.271 14.7842 53.9734 14.7842C53.6758 14.7842 53.3815 14.7219 53.1093 14.6014C52.8372 14.4808 52.5933 14.3047 52.3933 14.0843C52.1933 13.8639 52.0417 13.6041 51.9481 13.3215C51.8545 13.039 51.821 12.74 51.8499 12.4438ZM55.1829 12.4438C55.1829 11.4677 54.7444 10.8969 53.9749 10.8969C53.2024 10.8969 52.7679 11.4677 52.7679 12.4438C52.7679 13.4277 53.2025 13.9941 53.9749 13.9941C54.7444 13.9941 55.1829 13.4238 55.1829 12.4438Z" fill="white"/>
<path d="M61.7422 14.6973H60.8203L59.8897 11.3809H59.8193L58.8926 14.6973H57.9795L56.7383 10.1943H57.6397L58.4463 13.6303H58.5127L59.4385 10.1943H60.291L61.2168 13.6303H61.2871L62.0898 10.1943H62.9785L61.7422 14.6973Z" fill="white"/>
<path d="M64.0215 10.1939H64.877V10.9092H64.9434C65.056 10.6523 65.246 10.4369 65.4869 10.2931C65.7278 10.1493 66.0075 10.0842 66.2871 10.107C66.5062 10.0905 66.7262 10.1235 66.9308 10.2036C67.1354 10.2837 67.3194 10.4088 67.469 10.5697C67.6187 10.7305 67.7303 10.923 67.7955 11.1328C67.8607 11.3426 67.8779 11.5644 67.8457 11.7818V14.6968H66.957V12.0049C66.957 11.2813 66.6426 10.9214 65.9854 10.9214C65.8366 10.9145 65.6881 10.9398 65.55 10.9957C65.412 11.0515 65.2876 11.1365 65.1855 11.2449C65.0834 11.3533 65.0059 11.4825 64.9584 11.6236C64.9108 11.7647 64.8944 11.9145 64.9102 12.0625V14.6968H64.0215L64.0215 10.1939Z" fill="white"/>
<path d="M69.2617 8.43652H70.1504V14.6973H69.2617V8.43652Z" fill="white"/>
<path d="M71.387 12.4439C71.3587 12.1479 71.3926 11.8494 71.4864 11.5673C71.5803 11.2852 71.7321 11.0259 71.932 10.8059C72.132 10.5859 72.3757 10.4101 72.6476 10.2898C72.9195 10.1696 73.2135 10.1074 73.5108 10.1074C73.808 10.1074 74.1021 10.1696 74.3739 10.2898C74.6458 10.4101 74.8895 10.5859 75.0895 10.8059C75.2894 11.0259 75.4412 11.2852 75.5351 11.5673C75.6289 11.8494 75.6628 12.1479 75.6345 12.4439C75.6633 12.7401 75.6299 13.0391 75.5362 13.3216C75.4426 13.6042 75.2909 13.864 75.0909 14.0844C74.8909 14.3048 74.647 14.4809 74.3749 14.6014C74.1027 14.722 73.8084 14.7842 73.5108 14.7842C73.2131 14.7842 72.9188 14.722 72.6466 14.6014C72.3745 14.4809 72.1306 14.3048 71.9306 14.0844C71.7306 13.864 71.5789 13.6042 71.4853 13.3216C71.3916 13.0391 71.3582 12.7401 71.387 12.4439ZM74.72 12.4439C74.72 11.4678 74.2815 10.897 73.512 10.897C72.7395 10.897 72.305 11.4678 72.305 12.4439C72.305 13.4278 72.7395 13.9942 73.512 13.9942C74.2815 13.9942 74.72 13.4239 74.72 12.4439Z" fill="white"/>
<path d="M76.5703 13.4238C76.5703 12.6133 77.1738 12.146 78.2451 12.0796L79.4648 12.0093V11.6206C79.4648 11.145 79.1504 10.8765 78.543 10.8765C78.0469 10.8765 77.7031 11.0586 77.6045 11.377H76.7441C76.835 10.6035 77.5625 10.1074 78.584 10.1074C79.7129 10.1074 80.3496 10.6694 80.3496 11.6206V14.6973H79.4941V14.0645H79.4238C79.2811 14.2914 79.0807 14.4765 78.8431 14.6007C78.6055 14.7249 78.3391 14.7838 78.0713 14.7715C77.8823 14.7911 77.6912 14.7709 77.5104 14.7122C77.3297 14.6536 77.1632 14.5576 77.0218 14.4307C76.8804 14.3037 76.7671 14.1485 76.6894 13.9751C76.6116 13.8017 76.5711 13.6139 76.5703 13.4238ZM79.4648 13.0391V12.6626L78.3652 12.7329C77.7451 12.7744 77.4639 12.9853 77.4639 13.3823C77.4639 13.7876 77.8154 14.0234 78.2989 14.0234C78.4405 14.0378 78.5836 14.0235 78.7196 13.9814C78.8556 13.9393 78.9817 13.8703 79.0905 13.7784C79.1993 13.6866 79.2885 13.5738 79.3528 13.4468C79.4171 13.3198 79.4552 13.1811 79.4648 13.0391Z" fill="white"/>
<path d="M81.5176 12.4439C81.5176 11.021 82.249 10.1196 83.3867 10.1196C83.6681 10.1067 83.9474 10.1741 84.192 10.314C84.4365 10.4539 84.6361 10.6605 84.7676 10.9096H84.834V8.43652H85.7227V14.6973H84.8711V13.9858H84.8008C84.6592 14.2333 84.4526 14.4374 84.2033 14.5758C83.9541 14.7143 83.6717 14.782 83.3867 14.7715C82.2412 14.7715 81.5176 13.8701 81.5176 12.4439ZM82.4356 12.4439C82.4356 13.3989 82.8858 13.9737 83.6387 13.9737C84.3877 13.9737 84.8506 13.3907 84.8506 12.4478C84.8506 11.5093 84.3829 10.918 83.6387 10.918C82.8906 10.918 82.4356 11.4966 82.4356 12.4439Z" fill="white"/>
<path d="M89.3987 12.4438C89.3704 12.1479 89.4043 11.8493 89.4981 11.5672C89.5919 11.2852 89.7437 11.0258 89.9436 10.8059C90.1436 10.5859 90.3873 10.4101 90.6591 10.2898C90.931 10.1696 91.225 10.1074 91.5223 10.1074C91.8195 10.1074 92.1135 10.1696 92.3854 10.2898C92.6572 10.4101 92.9009 10.5859 93.1009 10.8059C93.3008 11.0258 93.4526 11.2852 93.5464 11.5672C93.6402 11.8493 93.6741 12.1479 93.6458 12.4438C93.6746 12.74 93.6412 13.039 93.5476 13.3215C93.454 13.6041 93.3023 13.8639 93.1023 14.0843C92.9023 14.3047 92.6585 14.4808 92.3863 14.6014C92.1142 14.7219 91.8199 14.7842 91.5223 14.7842C91.2246 14.7842 90.9303 14.7219 90.6582 14.6014C90.386 14.4808 90.1422 14.3047 89.9422 14.0843C89.7422 13.8639 89.5905 13.6041 89.4969 13.3215C89.4033 13.039 89.3699 12.74 89.3987 12.4438ZM92.7317 12.4438C92.7317 11.4677 92.2932 10.8969 91.5237 10.8969C90.7513 10.8969 90.3167 11.4677 90.3167 12.4438C90.3167 13.4277 90.7513 13.9941 91.5237 13.9941C92.2932 13.9941 92.7317 13.4238 92.7317 12.4438Z" fill="white"/>
<path d="M94.8379 10.1939H95.6934V10.9092H95.7598C95.8724 10.6523 96.0624 10.4369 96.3033 10.2931C96.5442 10.1493 96.8239 10.0842 97.1035 10.107C97.3226 10.0905 97.5426 10.1235 97.7472 10.2036C97.9518 10.2837 98.1358 10.4088 98.2855 10.5697C98.4351 10.7305 98.5467 10.923 98.6119 11.1328C98.6771 11.3426 98.6943 11.5644 98.6621 11.7818V14.6968H97.7734V12.0049C97.7734 11.2813 97.459 10.9214 96.8018 10.9214C96.653 10.9145 96.5045 10.9398 96.3664 10.9957C96.2284 11.0515 96.104 11.1365 96.0019 11.2449C95.8998 11.3533 95.8223 11.4825 95.7748 11.6236C95.7273 11.7647 95.7108 11.9145 95.7266 12.0625V14.6968H94.8379V10.1939Z" fill="white"/>
<path d="M103.685 9.07324V10.2148H104.66V10.9634H103.685V13.2788C103.685 13.7505 103.879 13.957 104.321 13.957C104.435 13.9567 104.548 13.9498 104.66 13.9365V14.6768C104.501 14.7053 104.339 14.7205 104.177 14.7222C103.188 14.7222 102.795 14.3745 102.795 13.5063V10.9633H102.08V10.2148H102.795V9.07324H103.685Z" fill="white"/>
<path d="M105.873 8.43652H106.754V10.918H106.824C106.942 10.6587 107.138 10.4421 107.383 10.2977C107.629 10.1534 107.913 10.0883 108.197 10.1113C108.415 10.0995 108.633 10.1359 108.835 10.2179C109.038 10.2999 109.219 10.4256 109.367 10.586C109.516 10.7463 109.626 10.9373 109.692 11.1455C109.758 11.3536 109.777 11.5737 109.748 11.79V14.6973H108.858V12.0093C108.858 11.29 108.523 10.9258 107.896 10.9258C107.743 10.9132 107.589 10.9342 107.445 10.9873C107.302 11.0404 107.171 11.1242 107.063 11.2329C106.955 11.3417 106.872 11.4727 106.82 11.6168C106.768 11.761 106.748 11.9147 106.762 12.0674V14.6973H105.873L105.873 8.43652Z" fill="white"/>
<path d="M114.929 13.4815C114.809 13.8931 114.547 14.249 114.19 14.4872C113.834 14.7253 113.405 14.8305 112.978 14.7842C112.682 14.7921 112.387 14.7353 112.114 14.6177C111.842 14.5002 111.598 14.3248 111.4 14.1036C111.202 13.8825 111.055 13.6209 110.968 13.3371C110.881 13.0533 110.858 12.754 110.898 12.46C110.859 12.1652 110.883 11.8652 110.969 11.5805C111.056 11.2959 111.203 11.0331 111.399 10.81C111.596 10.587 111.839 10.4088 112.11 10.2876C112.382 10.1664 112.677 10.105 112.974 10.1075C114.227 10.1075 114.983 10.9635 114.983 12.3775V12.6876H111.803V12.7374C111.789 12.9026 111.81 13.069 111.864 13.2257C111.918 13.3825 112.005 13.5262 112.118 13.6476C112.231 13.7691 112.368 13.8656 112.52 13.931C112.672 13.9964 112.837 14.0292 113.003 14.0274C113.215 14.0529 113.431 14.0146 113.621 13.9174C113.812 13.8202 113.97 13.6685 114.074 13.4815L114.929 13.4815ZM111.803 12.0303H114.078C114.089 11.8792 114.068 11.7274 114.017 11.5847C113.967 11.442 113.886 11.3115 113.782 11.2016C113.677 11.0918 113.551 11.005 113.411 10.9468C113.271 10.8886 113.121 10.8604 112.969 10.8638C112.816 10.8619 112.663 10.8908 112.521 10.9487C112.378 11.0067 112.249 11.0925 112.14 11.2012C112.032 11.3099 111.946 11.4393 111.888 11.5817C111.83 11.7241 111.801 11.8766 111.803 12.0303Z" fill="white"/>
</g>
</g>
<defs>
<clipPath id="clip0_2_6226">
<rect width="140" height="40" fill="white"/>
</clipPath>
<clipPath id="clip1_2_6226">
<rect width="119.664" height="40" fill="white" transform="translate(10.168)"/>
</clipPath>
</defs>
</svg>
